<svg width="25" height="25" viewBox="0 0 25 25" fill="none" xmlns="http://www.w3.org/2000/svg">
<path fill-rule="evenodd" clip-rule="evenodd" d="M4.04877 24.5869C3.57126 24.5871 3.09839 24.4933 2.65718 24.3106C2.21597 24.128 1.81509 23.8602 1.47744 23.5226C1.13979 23.1849 0.871993 22.784 0.689365 22.3428C0.506737 21.9016 0.412855 21.4287 0.413086 20.9512V4.04926C0.412855 3.57175 0.506737 3.09887 0.689365 2.65767C0.871993 2.21646 1.13979 1.81558 1.47744 1.47793C1.81509 1.14028 2.21597 0.872482 2.65718 0.689853C3.09839 0.507225 3.57126 0.413343 4.04877 0.413575H20.9507C21.4282 0.413343 21.9011 0.507225 22.3423 0.689853C22.7835 0.872482 23.1844 1.14028 23.5221 1.47793C23.8597 1.81558 24.1275 2.21646 24.3101 2.65767C24.4928 3.09887 24.5866 3.57175 24.5864 4.04926V20.9512C24.5866 21.4287 24.4928 21.9016 24.3101 22.3428C24.1275 22.784 23.8597 23.1849 23.5221 23.5226C23.1844 23.8602 22.7835 24.128 22.3423 24.3106C21.9011 24.4933 21.4282 24.5871 20.9507 24.5869H4.04877ZM18.8204 14.3753H16.2675V22.8263H20.9683C21.2148 22.8263 21.4589 22.7777 21.6866 22.6834C21.9143 22.5891 22.1212 22.4509 22.2955 22.2766C22.4697 22.1023 22.608 21.8954 22.7023 21.6677C22.7966 21.44 22.8452 21.1959 22.8452 20.9495V4.0475C22.8452 3.54973 22.6474 3.07236 22.2955 2.72038C21.9435 2.36841 21.4661 2.17067 20.9683 2.17067H4.06638C3.56861 2.17067 3.09123 2.36841 2.73926 2.72038C2.38729 3.07236 2.18955 3.54973 2.18955 4.0475V20.9495C2.18955 21.4472 2.38729 21.9246 2.73926 22.2766C3.09123 22.6285 3.56861 22.8263 4.06638 22.8263H13.4505V14.3753H10.6335V11.5583H13.4505V10.0459C13.4505 7.17612 14.8467 5.92608 17.2182 5.92608C18.3362 5.92608 18.9366 6.00707 19.2253 6.04756H19.2429V8.74131H17.6196C16.801 8.74131 16.4136 9.09344 16.2974 9.79769C16.2691 9.98236 16.2556 10.169 16.2569 10.3558V11.5583H19.2148L18.8133 14.3753H18.8204Z" fill="white"/>
</svg>
