<svg width="18" height="18" viewBox="0 0 18 18" fill="none" xmlns="http://www.w3.org/2000/svg">
<g id="proicons:call">
<path id="Vector" d="M6.02132 11.9791C4.48519 10.44 3.30384 8.58388 2.5599 6.54056C2.15061 5.42341 2.52561 4.19627 3.36704 3.35484L3.88775 2.83484C4.02774 2.69457 4.19402 2.58328 4.37708 2.50735C4.56013 2.43142 4.75636 2.39233 4.95454 2.39233C5.15272 2.39233 5.34895 2.43142 5.532 2.50735C5.71505 2.58328 5.88133 2.69457 6.02132 2.83484L7.24061 4.05413C7.38088 4.19412 7.49217 4.3604 7.5681 4.54345C7.64403 4.72651 7.68312 4.92274 7.68312 5.12091C7.68312 5.31909 7.64403 5.51532 7.5681 5.69837C7.49217 5.88143 7.38088 6.04771 7.24061 6.1877L6.94061 6.4877C6.82053 6.60776 6.72527 6.75029 6.66028 6.90717C6.59529 7.06404 6.56184 7.23218 6.56184 7.40199C6.56184 7.57179 6.59529 7.73993 6.66028 7.8968C6.72527 8.05368 6.82053 8.19621 6.94061 8.31627L9.68347 11.0598C9.80352 11.1799 9.94606 11.2752 10.1029 11.3402C10.2598 11.4052 10.428 11.4386 10.5978 11.4386C10.7676 11.4386 10.9357 11.4052 11.0926 11.3402C11.2494 11.2752 11.392 11.1799 11.512 11.0598L11.8128 10.7598C11.9527 10.6196 12.119 10.5083 12.3021 10.4324C12.4851 10.3564 12.6814 10.3173 12.8795 10.3173C13.0777 10.3173 13.2739 10.3564 13.457 10.4324C13.6401 10.5083 13.8063 10.6196 13.9463 10.7598L15.1656 11.9791C15.3059 12.1191 15.4172 12.2854 15.4931 12.4685C15.569 12.6515 15.6081 12.8477 15.6081 13.0459C15.6081 13.2441 15.569 13.4403 15.4931 13.6234C15.4172 13.8064 15.3059 13.9727 15.1656 14.1127L14.6456 14.6327C13.8042 15.4748 12.577 15.8498 11.4599 15.4406C9.41658 14.6966 7.56044 13.5153 6.02132 11.9791Z" stroke="white" stroke-width="1.5" stroke-linejoin="round"/>
</g>
</svg>
