<svg width="25" height="24" viewBox="0 0 25 24" fill="none" xmlns="http://www.w3.org/2000/svg">
<path d="M20.3291 21C20.3291 19.6044 20.3291 18.9067 20.1569 18.3389C19.7691 17.0605 18.7686 16.06 17.4902 15.6722C16.9224 15.5 16.2247 15.5 14.8291 15.5H9.82911C8.43354 15.5 7.73576 15.5 7.16796 15.6722C5.88956 16.06 4.88914 17.0605 4.50134 18.3389C4.3291 18.9067 4.3291 19.6044 4.3291 21M16.8291 7.5C16.8291 9.98528 14.8144 12 12.3291 12C9.84382 12 7.8291 9.98528 7.8291 7.5C7.8291 5.01472 9.84382 3 12.3291 3C14.8144 3 16.8291 5.01472 16.8291 7.5Z" stroke="#6E491C" stroke-width="2" stroke-linecap="round" stroke-linejoin="round"/>
</svg>
