<svg width="26" height="26" viewBox="0 0 26 26" fill="none" xmlns="http://www.w3.org/2000/svg">
<path d="M8.84375 21.5938C9.27522 21.5938 9.625 21.244 9.625 20.8125C9.625 20.381 9.27522 20.0312 8.84375 20.0312C8.41228 20.0312 8.0625 20.381 8.0625 20.8125C8.0625 21.244 8.41228 21.5938 8.84375 21.5938Z" stroke="#6E491C" stroke-width="1.5" stroke-linecap="round" stroke-linejoin="round"/>
<path d="M19.7812 21.5938C20.2127 21.5938 20.5625 21.244 20.5625 20.8125C20.5625 20.381 20.2127 20.0312 19.7812 20.0312C19.3498 20.0312 19 20.381 19 20.8125C19 21.244 19.3498 21.5938 19.7812 21.5938Z" stroke="#6E491C" stroke-width="1.5" stroke-linecap="round" stroke-linejoin="round"/>
<path d="M2.59375 4.40625H5.71875L8.0625 17.6875H20.5625" stroke="#6E491C" stroke-width="1.5" stroke-linecap="round" stroke-linejoin="round"/>
<path d="M8.0625 14.5625H20.2422C20.3325 14.5626 20.4201 14.5313 20.49 14.4741C20.5599 14.4168 20.6078 14.3371 20.6255 14.2485L22.0317 7.21729C22.0431 7.16059 22.0417 7.10208 22.0277 7.04598C22.0137 6.98988 21.9874 6.93759 21.9507 6.89289C21.9141 6.84818 21.8679 6.81218 21.8156 6.78747C21.7634 6.76276 21.7063 6.74996 21.6484 6.75H6.5" stroke="#6E491C" stroke-width="1.5" stroke-linecap="round" stroke-linejoin="round"/>
</svg>
