<svg width="27" height="27" viewBox="0 0 27 27" fill="none" xmlns="http://www.w3.org/2000/svg">
<path d="M1.41309 12.3025C1.41309 7.16971 1.41309 4.60266 3.00831 3.0088C4.60353 1.41494 7.16923 1.41357 12.302 1.41357H15.0242C20.1569 1.41357 22.724 1.41357 24.3179 3.0088C25.9117 4.60402 25.9131 7.16971 25.9131 12.3025V15.0247C25.9131 20.1574 25.9131 22.7245 24.3179 24.3184C22.7226 25.9122 20.1569 25.9136 15.0242 25.9136H12.302C7.16923 25.9136 4.60217 25.9136 3.00831 24.3184C1.41445 22.7231 1.41309 20.1574 1.41309 15.0247V12.3025Z" stroke="white" stroke-width="1.5"/>
<path d="M21.0794 7.53874C21.0794 8.2521 20.5011 8.8304 19.7878 8.8304C19.0744 8.8304 18.4961 8.2521 18.4961 7.53874C18.4961 6.82537 19.0744 6.24707 19.7878 6.24707C20.5011 6.24707 21.0794 6.82537 21.0794 7.53874Z" stroke="white" stroke-width="1.5"/>
<path d="M13.6634 17.7467C15.9186 17.7467 17.7467 15.9186 17.7467 13.6634C17.7467 11.4082 15.9186 9.58008 13.6634 9.58008C11.4082 9.58008 9.58008 11.4082 9.58008 13.6634C9.58008 15.9186 11.4082 17.7467 13.6634 17.7467Z" stroke="white" stroke-width="1.5"/>
</svg>
