<svg width="25" height="25" viewBox="0 0 25 25" fill="none" xmlns="http://www.w3.org/2000/svg">
<path d="M21.347 0.413574H3.81586C2.91416 0.416088 2.05011 0.775402 1.41251 1.413C0.774914 2.0506 0.4156 2.91465 0.413086 3.81635V21.3475C0.4156 22.2492 0.774914 23.1132 1.41251 23.7508C2.05011 24.3884 2.91416 24.7477 3.81586 24.7502H21.347C22.2495 24.7502 23.115 24.3917 23.7531 23.7536C24.3912 23.1154 24.7498 22.2499 24.7498 21.3475V3.81635C24.7498 2.91388 24.3912 2.04837 23.7531 1.41022C23.115 0.77208 22.2495 0.413574 21.347 0.413574ZM23.3886 21.3475C23.3851 21.8878 23.1688 22.4051 22.7867 22.7872C22.4046 23.1693 21.8874 23.3856 21.347 23.3891H3.81586C3.27548 23.3856 2.75825 23.1693 2.37613 22.7872C1.99401 22.4051 1.77776 21.8878 1.7742 21.3475V3.81635C1.77776 3.27597 1.99401 2.75873 2.37613 2.37662C2.75825 1.9945 3.27548 1.77825 3.81586 1.77469H21.347C21.8874 1.77825 22.4046 1.9945 22.7867 2.37662C23.1688 2.75873 23.3851 3.27597 23.3886 3.81635V21.3475Z" fill="white"/>
<path d="M4.92676 10.8777C4.92676 10.5167 5.07016 10.1705 5.32542 9.91526C5.58068 9.66 5.92688 9.5166 6.28787 9.5166C6.64886 9.5166 6.99506 9.66 7.25032 9.91526C7.50558 10.1705 7.64898 10.5167 7.64898 10.8777V19.7249C7.64898 20.0859 7.50558 20.4321 7.25032 20.6874C6.99506 20.9426 6.64886 21.086 6.28787 21.086C5.92688 21.086 5.58068 20.9426 5.32542 20.6874C5.07016 20.4321 4.92676 20.0859 4.92676 19.7249V10.8777Z" fill="white"/>
<path d="M6.28787 6.78912C7.03959 6.78912 7.64898 6.17973 7.64898 5.42801C7.64898 4.67628 7.03959 4.06689 6.28787 4.06689C5.53615 4.06689 4.92676 4.67628 4.92676 5.42801C4.92676 6.17973 5.53615 6.78912 6.28787 6.78912Z" fill="white"/>
<path d="M20.2305 14.4467V19.7279C20.2305 20.0888 20.0871 20.4351 19.8318 20.6903C19.5766 20.9456 19.2304 21.089 18.8694 21.089C18.5084 21.089 18.1622 20.9456 17.9069 20.6903C17.6517 20.4351 17.5083 20.0888 17.5083 19.7279V14.4467C17.5083 13.8637 17.2767 13.3046 16.8644 12.8924C16.4522 12.4801 15.8931 12.2486 15.3101 12.2486C14.7271 12.2486 14.1679 12.4801 13.7557 12.8924C13.3435 13.3046 13.1119 13.8637 13.1119 14.4467V19.7279C13.1119 20.0888 12.9685 20.4351 12.7132 20.6903C12.458 20.9456 12.1117 21.089 11.7508 21.089C11.3898 21.089 11.0436 20.9456 10.7883 20.6903C10.533 20.4351 10.3896 20.0888 10.3896 19.7279V10.8806C10.3953 10.5214 10.5405 10.1784 10.7945 9.92439C11.0486 9.67034 11.3915 9.52514 11.7508 9.51952C11.9813 9.51321 12.2093 9.56933 12.4105 9.68194C12.6118 9.79455 12.7789 9.95947 12.8941 10.1592C13.6425 9.73506 14.4892 9.51481 15.3495 9.52051C16.2097 9.52621 17.0534 9.75767 17.7961 10.1917C18.5389 10.6258 19.1546 11.2473 19.5818 11.994C20.009 12.7407 20.2327 13.5865 20.2305 14.4467Z" fill="white"/>
</svg>
